<mxfile host="app.diagrams.net" modified="2024-05-10T12:03:46.511Z" agent="Mozilla/5.0 (X11; Linux x86_64) AppleWebKit/537.36 (KHTML, like Gecko) Chrome/117.0.0.0 Safari/537.36" version="24.3.1" etag="aA-9HMc3NvTXosIFCsKz" type="github">
  <diagram name="第 1 页" id="2IwFRmJQH-KaqQ3qFWqz">
    <mxGraphModel>
      <root>
        <mxCell id="0" />
        <mxCell id="1" parent="0" />
      </root>
    </mxGraphModel>
  </diagram>
</mxfile>
